HIERARCHY
ROOT Hips
{
	OFFSET 0.000000 83.214638 0.000000
	CHANNELS 6 Xposition Yposition Zposition Xrotation Yrotation Zrotation
	JOINT Pelvis
	{
		OFFSET 0.000000 0.000000 0.000000
		CHANNELS 3 Xrotation Yrotation Zrotation
		JOINT LeftUpLeg
		{
			OFFSET 8.479700 -4.795502 -0.379100
			CHANNELS 3 Xrotation Yrotation Zrotation
			JOINT LeftLeg
			{
				OFFSET 0.024144 -32.555107 0.112900
				CHANNELS 3 Xrotation Yrotation Zrotation
				JOINT LeftFoot
				{
					OFFSET -0.024144 -32.638630 -3.012600
					CHANNELS 3 Xrotation Yrotation Zrotation
					JOINT LeftToeBase
					{
						OFFSET 0.970200 -13.225400 11.864200
						CHANNELS 3 Xrotation Yrotation Zrotation
						End Site
						{
							OFFSET 0.000000 12.319262 0.000000
						}
					}
					JOINT LFootTongue
					{
						OFFSET 1.142400 -1.059800 6.665200
						CHANNELS 3 Xrotation Yrotation Zrotation
						End Site
						{
							OFFSET 0.000000 12.319262 0.000000
						}
					}
				}
				JOINT LeftPantLeg
				{
					OFFSET 0.918482 -16.533964 -2.284700
					CHANNELS 3 Xrotation Yrotation Zrotation
					End Site
					{
						OFFSET 0.350399 24.744368 0.000000
					}
				}
			}
		}
		JOINT RightUpLeg
		{
			OFFSET -8.479700 -4.795502 -0.379100
			CHANNELS 3 Xrotation Yrotation Zrotation
			JOINT RightLeg
			{
				OFFSET -0.023144 -32.555092 0.112900
				CHANNELS 3 Xrotation Yrotation Zrotation
				JOINT RightFoot
				{
					OFFSET 0.023144 -32.638641 -3.012700
					CHANNELS 3 Xrotation Yrotation Zrotation
					JOINT RightToeBase
					{
						OFFSET -0.970200 -13.225400 11.864200
						CHANNELS 3 Xrotation Yrotation Zrotation
						End Site
						{
							OFFSET 0.000000 12.319244 0.000000
						}
					}
					JOINT RFootTongue
					{
						OFFSET -1.142200 -1.059800 6.665200
						CHANNELS 3 Xrotation Yrotation Zrotation
						End Site
						{
							OFFSET 0.000000 12.319243 0.000000
						}
					}
				}
				JOINT RightPantLeg
				{
					OFFSET -0.919482 -16.533978 -2.284800
					CHANNELS 3 Xrotation Yrotation Zrotation
					End Site
					{
						OFFSET -0.350400 24.744419 0.000000
					}
				}
			}
		}
	}
	JOINT Spine
	{
		OFFSET 0.000000 7.722000 1.166200
		CHANNELS 3 Xrotation Yrotation Zrotation
		JOINT Spine1
		{
			OFFSET 0.000000 12.024101 0.248800
			CHANNELS 3 Xrotation Yrotation Zrotation
			JOINT Spine2
			{
				OFFSET 0.000000 11.502998 -0.491200
				CHANNELS 3 Xrotation Yrotation Zrotation
				JOINT Neck
				{
					OFFSET 0.000000 18.430702 -3.123100
					CHANNELS 3 Xrotation Yrotation Zrotation
					JOINT Head
					{
						OFFSET 0.000000 9.051102 1.034000
						CHANNELS 3 Xrotation Yrotation Zrotation
						JOINT HairB
						{
							OFFSET 0.208400 24.786102 24.822300
							CHANNELS 3 Xrotation Yrotation Zrotation
							End Site
							{
								OFFSET 0.000000 32.263779 0.000000
							}
						}
						JOINT HairA
						{
							OFFSET -7.081100 24.428299 23.196600
							CHANNELS 3 Xrotation Yrotation Zrotation
							End Site
							{
								OFFSET 0.000000 32.263779 0.000000
							}
						}
						JOINT Hat
						{
							OFFSET 16.728800 15.048294 -15.439601
							CHANNELS 3 Xrotation Yrotation Zrotation
							End Site
							{
								OFFSET 0.000000 32.263779 0.000000
							}
						}
					}
				}
				JOINT LeftShoulder
				{
					OFFSET 6.197800 13.665199 -4.064700
					CHANNELS 3 Xrotation Yrotation Zrotation
					JOINT LeftArm
					{
						OFFSET 7.778100 -0.187103 -1.709300
						CHANNELS 3 Xrotation Yrotation Zrotation
						JOINT LeftForeArm
						{
							OFFSET 22.049376 0.000000 0.000000
							CHANNELS 3 Xrotation Yrotation Zrotation
							JOINT LeftHand
							{
								OFFSET 23.009392 0.000000 0.000000
								CHANNELS 3 Xrotation Yrotation Zrotation
								JOINT LeftHandThumb1
								{
									OFFSET 3.507191 -2.063065 3.133727
									CHANNELS 3 Xrotation Yrotation Zrotation
									JOINT LeftHandThumb2
									{
										OFFSET 3.101337 -1.790558 1.790558
										CHANNELS 3 Xrotation Yrotation Zrotation
										JOINT LeftHandThumb3
										{
											OFFSET 3.058640 -1.765907 1.765906
											CHANNELS 3 Xrotation Yrotation Zrotation
											End Site
											{
												OFFSET -0.415260 3.926476 -0.049563
											}
										}
									}
								}
								JOINT LeftHandIndex1
								{
									OFFSET 11.334419 -0.901459 3.706815
									CHANNELS 3 Xrotation Yrotation Zrotation
									JOINT LeftHandIndex2
									{
										OFFSET 3.283112 0.000000 0.000000
										CHANNELS 3 Xrotation Yrotation Zrotation
										JOINT LeftHandIndex3
										{
											OFFSET 3.323853 0.000000 0.000000
											CHANNELS 3 Xrotation Yrotation Zrotation
											End Site
											{
												OFFSET -1.135597 3.097809 0.402452
											}
										}
									}
								}
								JOINT LeftHandMiddle1
								{
									OFFSET 11.335861 0.000000 0.000000
									CHANNELS 3 Xrotation Yrotation Zrotation
									JOINT LeftHandMiddle2
									{
										OFFSET 3.410492 0.000000 0.000000
										CHANNELS 3 Xrotation Yrotation Zrotation
										JOINT LeftHandMiddle3
										{
											OFFSET 3.312172 0.000000 0.000000
											CHANNELS 3 Xrotation Yrotation Zrotation
											End Site
											{
												OFFSET -1.150200 3.080154 0.400270
											}
										}
									}
								}
								JOINT LeftHandRing1
								{
									OFFSET 11.514786 -0.013176 -3.003090
									CHANNELS 3 Xrotation Yrotation Zrotation
									JOINT LeftHandRing2
									{
										OFFSET 3.053307 0.000000 0.000000
										CHANNELS 3 Xrotation Yrotation Zrotation
										JOINT LeftHandRing3
										{
											OFFSET 3.295807 0.000000 0.000000
											CHANNELS 3 Xrotation Yrotation Zrotation
											End Site
											{
												OFFSET -1.281006 3.013344 0.375733
											}
										}
									}
								}
								JOINT LeftHandPinky1
								{
									OFFSET 10.518692 -0.960396 -5.730441
									CHANNELS 3 Xrotation Yrotation Zrotation
									JOINT LeftHandPinky2
									{
										OFFSET 2.861649 0.000000 0.000000
										CHANNELS 3 Xrotation Yrotation Zrotation
										JOINT LeftHandPinky3
										{
											OFFSET 2.863380 0.000000 0.000000
											CHANNELS 3 Xrotation Yrotation Zrotation
											End Site
											{
												OFFSET -0.843597 2.711159 0.369971
											}
										}
									}
								}
							}
							JOINT LSleeve
							{
								OFFSET 6.676277 -0.344902 -1.011730
								CHANNELS 3 Xrotation Yrotation Zrotation
								End Site
								{
									OFFSET 0.000000 14.885353 0.000000
								}
							}
						}
					}
				}
				JOINT RightShoulder
				{
					OFFSET -6.197800 13.665199 -4.064700
					CHANNELS 3 Xrotation Yrotation Zrotation
					JOINT RightArm
					{
						OFFSET -7.778100 -0.187103 -1.709300
						CHANNELS 3 Xrotation Yrotation Zrotation
						JOINT RightForeArm
						{
							OFFSET -22.049376 0.000000 0.000000
							CHANNELS 3 Xrotation Yrotation Zrotation
							JOINT RightHand
							{
								OFFSET -23.009392 0.000000 0.000000
								CHANNELS 3 Xrotation Yrotation Zrotation
								JOINT RightHandThumb1
								{
									OFFSET -3.507191 -2.063065 3.133727
									CHANNELS 3 Xrotation Yrotation Zrotation
									JOINT RightHandThumb2
									{
										OFFSET -3.101337 -1.790558 1.790558
										CHANNELS 3 Xrotation Yrotation Zrotation
										JOINT RightHandThumb3
										{
											OFFSET -3.058640 -1.765907 1.765906
											CHANNELS 3 Xrotation Yrotation Zrotation
											End Site
											{
												OFFSET 0.415260 3.926476 -0.049563
											}
										}
									}
								}
								JOINT RightHandIndex1
								{
									OFFSET -11.334419 -0.901459 3.706815
									CHANNELS 3 Xrotation Yrotation Zrotation
									JOINT RightHandIndex2
									{
										OFFSET -3.283112 0.000000 0.000000
										CHANNELS 3 Xrotation Yrotation Zrotation
										JOINT RightHandIndex3
										{
											OFFSET -3.323853 0.000000 0.000000
											CHANNELS 3 Xrotation Yrotation Zrotation
											End Site
											{
												OFFSET 1.135597 3.097809 0.402452
											}
										}
									}
								}
								JOINT RightHandMiddle1
								{
									OFFSET -11.335861 0.000000 0.000000
									CHANNELS 3 Xrotation Yrotation Zrotation
									JOINT RightHandMiddle2
									{
										OFFSET -3.410492 0.000000 0.000000
										CHANNELS 3 Xrotation Yrotation Zrotation
										JOINT RightHandMiddle3
										{
											OFFSET -3.312172 0.000000 0.000000
											CHANNELS 3 Xrotation Yrotation Zrotation
											End Site
											{
												OFFSET 1.150200 3.080154 0.400270
											}
										}
									}
								}
								JOINT RightHandRing1
								{
									OFFSET -11.514786 -0.013176 -3.003090
									CHANNELS 3 Xrotation Yrotation Zrotation
									JOINT RightHandRing2
									{
										OFFSET -3.053307 0.000000 0.000000
										CHANNELS 3 Xrotation Yrotation Zrotation
										JOINT RightHandRing3
										{
											OFFSET -3.295807 0.000000 0.000000
											CHANNELS 3 Xrotation Yrotation Zrotation
											End Site
											{
												OFFSET 1.281006 3.013344 0.375733
											}
										}
									}
								}
								JOINT RightHandPinky1
								{
									OFFSET -10.518692 -0.960396 -5.730441
									CHANNELS 3 Xrotation Yrotation Zrotation
									JOINT RightHandPinky2
									{
										OFFSET -2.861649 0.000000 0.000000
										CHANNELS 3 Xrotation Yrotation Zrotation
										JOINT RightHandPinky3
										{
											OFFSET -2.863380 0.000000 0.000000
											CHANNELS 3 Xrotation Yrotation Zrotation
											End Site
											{
												OFFSET 0.843597 2.711159 0.369971
											}
										}
									}
								}
							}
							JOINT RSleeve
							{
								OFFSET -6.676277 -0.344902 -1.011730
								CHANNELS 3 Xrotation Yrotation Zrotation
								End Site
								{
									OFFSET 0.000000 14.885353 0.000000
								}
							}
						}
					}
				}
				JOINT Backpack
				{
					OFFSET 0.000000 -2.471497 36.677502
					CHANNELS 3 Xrotation Yrotation Zrotation
					End Site
					{
						OFFSET 0.000000 20.427315 0.000000
					}
				}
				JOINT Hood
				{
					OFFSET 0.000000 18.754097 -10.431000
					CHANNELS 3 Xrotation Yrotation Zrotation
					JOINT Hood1
					{
						OFFSET 0.000000 -5.011002 -7.685901
						CHANNELS 3 Xrotation Yrotation Zrotation
						End Site
						{
							OFFSET 0.000000 9.175140 0.000000
						}
					}
				}
				JOINT LHoodieString
				{
					OFFSET 5.250500 16.397697 3.089900
					CHANNELS 3 Xrotation Yrotation Zrotation
					JOINT LHoodieString1
					{
						OFFSET 0.257700 -6.364304 3.694600
						CHANNELS 3 Xrotation Yrotation Zrotation
						JOINT LHoodieString2
						{
							OFFSET 0.000000 -9.643799 2.679100
							CHANNELS 3 Xrotation Yrotation Zrotation
							End Site
							{
								OFFSET 0.000000 10.009018 0.000000
							}
						}
					}
				}
				JOINT RHoodieString
				{
					OFFSET -5.250500 16.397697 3.089900
					CHANNELS 3 Xrotation Yrotation Zrotation
					JOINT RHoodieString1
					{
						OFFSET -0.257700 -6.364304 3.694600
						CHANNELS 3 Xrotation Yrotation Zrotation
						JOINT RHoodieString2
						{
							OFFSET 0.000000 -9.643799 2.679100
							CHANNELS 3 Xrotation Yrotation Zrotation
							End Site
							{
								OFFSET 0.000000 10.009018 0.000000
							}
						}
					}
				}
			}
			JOINT LBackpack_Strap
			{
				OFFSET 15.223200 -7.719803 -6.610900
				CHANNELS 3 Xrotation Yrotation Zrotation
				End Site
				{
					OFFSET 0.000000 16.040596 0.000000
				}
			}
			JOINT RBackpack_Strap
			{
				OFFSET -15.223000 -7.719803 -6.610900
				CHANNELS 3 Xrotation Yrotation Zrotation
				End Site
				{
					OFFSET 0.000000 16.040596 0.000000
				}
			}
		}
	}
	JOINT BoyFacialAnim_Joint
	{
		OFFSET 1.000000 -82.208099 -1.550900
		CHANNELS 3 Xrotation Yrotation Zrotation
		End Site
		{
			OFFSET 0.000000 30.012791 0.000000
		}
	}
}
MOTION
Frames: 4
Frame Time: 0.033333
-2.168032 76.932686 3.172882 4.480633 0.788390 -0.080861 -0.000000 -0.000000 0.000000 -30.018142 9.444004 13.466655 45.389694 -5.485995 -0.634754 -19.732483 0.380406 -1.686281 -0.000000 0.000001 -0.000000 -0.000000 0.000001 -0.000000 0.000001 0.000000 -0.000000 -30.851725 -5.673480 -8.661188 47.865477 -2.892535 1.479365 -18.172528 -0.676477 3.655285 -0.000000 -0.000001 -0.000000 -0.000000 -0.000001 -0.000000 0.000002 0.000001 0.000000 4.439746 -1.777559 -1.685693 2.486764 -0.248852 -0.114944 2.486831 -0.240927 -0.122409 5.946484 -0.612553 2.663775 -7.313539 -0.566553 0.427294 0.000000 0.000000 0.000000 0.000000 0.000000 0.000000 0.000000 0.000000 0.000000 0.591075 -1.000570 -9.779799 1.046366 -11.627560 -62.145070 -0.000028 -38.640921 -0.000054 2.327775 13.237320 -10.743644 -21.642033 25.496929 -12.951482 -8.603800 4.845899 18.771004 -0.000000 0.000001 0.000001 -1.026050 -0.462808 -26.642223 1.084939 3.715017 -32.549967 -0.000003 -0.000001 0.000002 0.232278 1.932537 -24.182637 1.710338 4.546331 -41.215496 0.000003 -0.000000 0.000000 2.417173 6.234684 -27.863422 0.757372 3.144424 -27.078954 0.000001 -0.000001 -0.000002 4.464780 8.774898 -33.418944 0.496214 -1.498535 -22.220993 -0.000002 0.000002 0.000000 0.000000 0.000003 -0.000002 0.622322 4.751737 6.601164 3.427851 10.636897 64.250107 0.000003 31.618930 -0.000015 0.171683 -2.306322 14.394771 -6.598361 -18.931746 11.751305 -1.468522 -5.983121 -9.194166 -0.000000 -0.000000 0.000001 -2.231386 7.164664 16.129468 0.347797 -2.175600 18.163387 0.000003 -0.000001 -0.000000 -0.694372 0.945396 18.776376 0.948046 -3.510085 30.220442 0.000001 0.000000 -0.000002 1.518906 -5.395597 19.871203 1.347972 -4.119357 36.226111 -0.000001 -0.000001 0.000004 1.066568 -3.746480 28.188879 0.685201 -3.014755 25.604357 -0.000002 -0.000000 0.000002 0.000001 0.000001 -0.000002 -0.000000 -0.000000 0.000000 -0.000000 -0.000000 0.000000 -0.000000 -0.000000 0.000000 -0.000000 -0.000000 0.000000 -0.000000 -0.000000 0.000000 -0.000000 -0.000000 -0.000000 -0.000000 -0.000000 0.000000 -0.000000 -0.000000 0.000000 -0.000000 -0.000000 -0.000000 -0.000001 -0.000000 0.000000 -0.000001 -0.000000 0.000000 -0.000000 -0.000000 0.000000 
-2.194578 76.938446 3.182217 4.545437 0.783787 -0.043645 -0.000000 0.000000 -0.000000 -30.025436 9.443762 13.428454 45.307312 -5.475722 -0.616873 -19.718579 0.388273 -1.733433 -0.000000 -0.000000 -0.000000 -0.000000 -0.000000 0.000000 0.000001 0.000000 0.000000 -30.912712 -5.658490 -8.674583 47.862984 -2.890093 1.483830 -18.182286 -0.673401 3.638849 -0.000000 0.000001 -0.000000 -0.000000 0.000001 -0.000000 0.000000 -0.000000 0.000001 4.452436 -1.771746 -1.610354 2.487327 -0.246585 -0.111463 2.487542 -0.239204 -0.117905 5.920232 -0.625069 2.664391 -7.366293 -0.569393 0.314867 -0.000001 -0.000000 -0.000000 -0.000001 -0.000000 -0.000000 -0.000001 -0.000000 -0.000000 0.590724 -1.010596 -9.780228 1.071767 -11.644112 -62.140207 -0.000010 -38.634665 -0.000045 2.347667 13.243882 -10.761053 -21.552150 25.489795 -12.995930 -8.606588 4.846655 18.773939 -0.000000 -0.000001 0.000000 -1.026518 -0.462976 -26.645630 1.084182 3.713841 -32.538352 -0.000000 -0.000001 -0.000002 0.232431 1.932930 -24.187529 1.709987 4.545948 -41.211220 -0.000001 -0.000001 -0.000002 2.418556 6.236786 -27.865777 0.757308 3.144296 -27.077665 -0.000002 -0.000001 -0.000001 4.466504 8.778134 -33.415072 0.496349 -1.498200 -22.223989 -0.000000 0.000001 -0.000000 0.000000 -0.000001 -0.000000 0.623426 4.782438 6.668533 3.331027 10.578773 64.025756 -0.000002 31.707729 0.000024 0.117333 -2.329537 14.395525 -6.544164 -18.979707 11.723806 -1.473711 -5.984988 -9.198214 -0.000000 0.000000 0.000000 -2.229186 7.161366 16.119509 0.347560 -2.174875 18.157071 -0.000003 0.000001 0.000000 -0.692286 0.940926 18.766558 0.948931 -3.511624 30.234956 0.000005 -0.000001 0.000001 1.522551 -5.406318 19.862154 1.347915 -4.119295 36.225500 0.000001 0.000000 0.000002 1.065397 -3.745477 28.178678 0.683836 -3.011893 25.578367 0.000002 -0.000001 0.000002 0.000001 -0.000002 0.000002 -0.000000 0.000000 0.000000 -0.000000 0.000000 0.000000 -0.000000 0.000000 0.000000 -0.000000 0.000000 0.000000 -0.000000 0.000000 0.000000 -0.000000 -0.000000 0.000000 -0.000000 0.000000 0.000000 -0.000000 0.000000 0.000000 -0.000000 -0.000000 0.000000 -0.000000 -0.000000 0.000000 -0.000000 -0.000000 0.000000 -0.000000 0.000000 -0.000000 
-2.209828 76.952400 3.194219 4.566141 0.779176 -0.033432 0.000000 0.000000 -0.000000 -29.978151 9.449553 13.411547 45.209087 -5.467938 -0.604757 -19.716461 0.393172 -1.758892 0.000000 0.000000 0.000000 0.000000 0.000000 0.000000 0.000002 0.000001 0.000000 -30.884575 -5.653427 -8.656468 47.796865 -2.898839 1.475550 -18.189550 -0.673174 3.638241 0.000000 0.000000 0.000000 0.000000 0.000000 0.000000 0.000003 0.000001 -0.000001 4.464201 -1.773372 -1.600298 2.489796 -0.246720 -0.105659 2.490035 -0.239326 -0.112046 5.910154 -0.629520 2.658261 -7.382045 -0.598302 0.314560 0.000001 0.000000 -0.000000 0.000001 0.000000 -0.000000 0.000001 0.000000 -0.000000 0.590747 -1.018730 -9.781460 1.068848 -11.656826 -62.132107 0.000004 -38.607053 0.000037 2.364158 13.237761 -10.768744 -21.350077 25.476650 -13.096469 -8.624383 4.852852 18.797367 0.000000 -0.000001 0.000001 -1.030138 -0.468392 -26.658655 1.083486 3.712751 -32.527567 -0.000002 0.000001 -0.000000 0.234356 1.937910 -24.195411 1.709343 4.545215 -41.203072 0.000001 -0.000001 -0.000002 2.422806 6.243733 -27.875071 0.757016 3.143722 -27.072286 -0.000002 -0.000001 -0.000006 4.471988 8.786388 -33.413507 0.496912 -1.496825 -22.236330 -0.000003 -0.000001 -0.000002 0.000002 0.000003 -0.000002 0.623832 4.806907 6.691313 3.339495 10.562453 64.003968 0.000023 31.711715 -0.000048 0.094022 -2.316413 14.381221 -6.532466 -18.988131 11.719474 -1.476858 -5.984850 -9.199248 -0.000002 -0.000000 0.000001 -2.229151 7.158067 16.124555 0.347601 -2.174972 18.157983 -0.000000 -0.000001 -0.000000 -0.692532 0.941701 18.767131 0.949066 -3.511832 30.237056 0.000003 0.000001 0.000003 1.522441 -5.405901 19.862497 1.348500 -4.120066 36.233368 0.000003 -0.000001 0.000000 1.066753 -3.747999 28.181434 0.683592 -3.011380 25.573775 -0.000003 -0.000001 -0.000003 -0.000000 -0.000002 0.000000 -0.000000 -0.000000 -0.000000 -0.000000 -0.000000 -0.000000 -0.000000 -0.000000 -0.000000 -0.000000 -0.000000 -0.000000 -0.000000 -0.000000 0.000000 -0.000000 -0.000000 -0.000000 -0.000000 -0.000000 -0.000000 -0.000000 -0.000000 0.000000 -0.000000 -0.000000 -0.000000 -0.000001 0.000000 0.000000 -0.000001 0.000000 0.000000 0.000000 0.000000 -0.000000 
-2.217870 76.957558 3.206381 4.561220 0.778317 -0.026941 -0.000000 -0.000000 0.000000 -29.934728 9.461216 13.412581 45.162334 -5.469420 -0.611448 -19.727915 0.394775 -1.763068 -0.000000 -0.000000 -0.000000 -0.000000 -0.000000 -0.000000 -0.000001 0.000001 0.000000 -30.851005 -5.650918 -8.640684 47.770070 -2.904902 1.456424 -18.206426 -0.674950 3.646337 -0.000000 0.000000 -0.000000 -0.000000 0.000000 -0.000000 0.000000 0.000001 -0.000001 4.479006 -1.779608 -1.604295 2.494201 -0.247554 -0.099936 2.494454 -0.240071 -0.106349 5.907011 -0.632649 2.654862 -7.366586 -0.621784 0.324999 -0.000000 -0.000000 0.000000 -0.000000 -0.000000 0.000000 -0.000000 -0.000000 0.000000 0.590622 -1.036872 -9.776016 1.053461 -11.662201 -62.140713 -0.000018 -38.608887 -0.000031 2.404508 13.210460 -10.783341 -21.163828 25.451320 -13.195193 -8.620039 4.848597 18.790294 -0.000000 -0.000001 -0.000000 -1.034672 -0.476496 -26.665171 1.082450 3.711123 -32.511547 -0.000001 0.000001 -0.000002 0.234530 1.937846 -24.196044 1.708599 4.544350 -41.193499 0.000002 0.000000 -0.000003 2.425620 6.248786 -27.876446 0.756862 3.143426 -27.069501 -0.000004 -0.000001 -0.000001 4.479273 8.797237 -33.412729 0.497516 -1.495345 -22.249544 -0.000001 0.000000 -0.000000 0.000002 0.000001 -0.000001 0.623659 4.816319 6.727435 3.355545 10.584093 63.963185 0.000006 31.720689 -0.000021 0.063537 -2.316152 14.352365 -6.537592 -18.972145 11.731967 -1.458930 -5.978663 -9.184940 0.000001 -0.000001 0.000000 -2.228761 7.150989 16.133979 0.347755 -2.175425 18.161915 0.000000 -0.000002 0.000001 -0.692962 0.941540 18.775003 0.949413 -3.512433 30.242780 -0.000001 0.000000 -0.000000 1.520041 -5.398652 19.867883 1.347909 -4.119277 36.225291 -0.000001 0.000001 0.000002 1.065129 -3.744756 28.177332 0.683335 -3.010852 25.568815 0.000001 -0.000000 -0.000005 -0.000000 0.000001 -0.000000 0.000000 -0.000000 0.000000 0.000000 -0.000000 0.000000 0.000000 -0.000000 0.000000 0.000000 -0.000000 0.000000 0.000000 -0.000000 0.000000 0.000000 0.000000 0.000000 0.000000 -0.000000 0.000000 0.000000 -0.000000 0.000000 0.000000 0.000000 0.000000 0.000000 -0.000000 -0.000000 0.000000 -0.000000 -0.000000 -0.000000 -0.000000 0.000000 
